# xmcd CD database file
#
# Track frame offsets:
#	150
#	15550
#	34642
#	57767
#	75445
#	119987
#	137225
#	149445
#	166682
#	230235
#	258602
#	282055
#
# Disc length: 4123 seconds
#
# Revision: 4
# Processed by: cddbd v1.4PL0 Copyright (c) Steve Scherf et al.
# Submitted via: CDex 1.40Release
#
DISCID=a810190c
DTITLE=B.B. King and Bobby Bland - Together For The First Time...Live
DYEAR=1974
DGENRE=Blues
TTITLE0=3 O'Clock Blues
TTITLE1=It's My Own Fault
TTITLE2=Driftin' Blues
TTITLE3=That's The Way Love Is
TTITLE4=I'm Sorry
TTITLE5=I'll Take Care Of You
TTITLE6=Don't Cry No More
TTITLE7=Don't Want A Soul Hangin' Around
TTITLE8=(Medley)
TTITLE9=Everybody Wants To Know Why I Sing The Blues
TTITLE10=Goin' Down Slow
TTITLE11=I Like To Live The Love
EXTD=YEAR: 1974 ID3G: 0
EXTT0=
EXTT1=
EXTT2=
EXTT3=
EXTT4=
EXTT5=
EXTT6=
EXTT7=
EXTT8=Good To Be Hack Home\nDriving Wheel\nRock Me Baby\nBlack Night\nCherryRed\nIt's My Own Fault\n3 O'Clock Blues\nOh, Come Back Baby\nChains Of Love\nGonna Get Me An Old Woman
EXTT9=
EXTT10=
EXTT11=
PLAYORDER=
